<svg version="1.2" xmlns="http://www.w3.org/2000/svg" viewBox="0 0 131 41" width="131" height="41">
	<title>image</title>
	<style>
		.s0 { fill: #7f57f1 } 
		.s1 { fill: #ffffff } 
	</style>
	<path fill-rule="evenodd" class="s0" d="m8.2 3.6q-2 1.5-3.7 3.4c4.5-0.4 10.1 0.3 16.6 3.7 7 3.5 12.6 3.7 16.5 2.9q-0.6-1.7-1.3-3.2c-4.5 0.5-10.2-0.1-16.9-3.6-4.3-2.1-8-3-11.2-3.2zm25.4 3c-3.5-4.1-8.6-6.6-14.3-6.6q-2.5 0-4.9 0.6c2.1 0.6 4.4 1.5 6.7 2.7 4.9 2.5 9.1 3.3 12.5 3.3zm4.8 10.8c-4.7 1-11.2 0.8-19-3.2-7.3-3.8-13.1-3.7-17.1-2.8q-0.3 0.1-0.5 0.1-0.8 1.8-1.3 3.6 0.5-0.1 1-0.2c4.8-1.1 11.5-1 19.6 3.1 7.3 3.8 13.1 3.7 17 2.8q0.2 0 0.4-0.1 0-0.4 0-0.9 0-1.2-0.1-2.4zm-0.5 7.5c-4.7 0.8-11 0.5-18.5-3.3-7.3-3.8-13.1-3.7-17.1-2.8q-1.3 0.3-2.3 0.6 0 0.2 0 0.4c0 10.9 8.6 19.8 19.3 19.8 8.9 0 16.4-6.2 18.6-14.7z"/>
	<path class="s1" d="m47.7 31.7v0.9h-0.9v-0.9zm0-0.9v0.9h-0.9v-0.9zm0-0.9v0.9h-0.9v-0.9zm0-0.9v0.9h-0.9v-0.9zm0-0.9v0.9h-0.9v-0.9zm0-0.9v0.9h-0.9v-0.9zm0-0.9v0.9h-0.9v-0.9zm0-0.9v0.9h-0.9v-0.9zm0-0.9v0.9h-0.9v-0.9zm0-0.9v0.9h-1v-0.9zm0-0.9v0.9h-0.9v-0.9zm0-1v1h-0.9v-1zm0-0.9v0.9h-0.9v-0.9zm0-0.9v0.9h-0.9v-0.9zm0-0.9v0.9h-0.9v-0.9zm0.9 0v0.9h-0.9v-0.9zm0 0.9v0.9h-0.9v-0.9zm0 0.9v0.9h-0.9v-0.9zm0 0.9v1h-0.9v-1zm0 1v0.9h-0.9v-0.9zm0 0.9v0.9h-0.9v-0.9zm0 0.9v0.9h-0.9v-0.9zm0.9 0.9v0.9h-0.9v-0.9zm0 0.9v0.9h-0.9v-0.9zm0 0.9v0.9h-0.9v-0.9zm0 0.9v0.9h-1v-0.9zm0 0.9v0.9h-0.9v-0.9zm0 0.9v0.9h-0.9v-0.9zm0 0.9v0.9h-0.9v-0.9zm0 0.9v0.9h-0.9v-0.9zm0.9 0v0.9h-0.9v-0.9zm0.9 0v0.9h-0.9v-0.9zm0-3.6v0.9h-0.9v-0.9zm0-0.9v0.9h-0.9v-0.9zm0-0.9v0.9h-0.9v-0.9zm0-0.9v0.9h-0.9v-0.9zm-0.9 0v0.9h-0.9v-0.9zm0-0.9v0.9h-0.9v-0.9zm0 1.8v0.9h-0.9v-0.9zm0 0.9v0.9h-1v-0.9zm0 0.9v0.9h-0.9v-0.9zm0 0.9v0.9h-0.9v-0.9zm0 0.9v0.9h-0.9v-0.9zm0 0.9v0.9h-0.9v-0.9zm-1.8 0.9v0.9h-0.9v-0.9zm0-0.9v0.9h-0.9v-0.9zm0-0.9v0.9h-0.9v-0.9zm0-0.9v0.9h-0.9v-0.9zm0-0.9v0.9h-0.9v-0.9zm0-0.9v0.9h-0.9v-0.9zm0-0.9v0.9h-1v-0.9zm0-0.9v0.9h-0.9v-0.9zm-0.9-15.4v0.9h-0.9v-0.9zm0 0.9v0.9h-0.9v-0.9zm0 0.9v0.9h-0.9v-0.9zm0 0.9v0.9h-0.9v-0.9zm0 0.9v0.9h-0.9v-0.9zm0 0.9v0.9h-0.9v-0.9zm0 0.9v0.9h-0.9v-0.9zm0 0.9v0.9h-0.9v-0.9zm0 0.9v0.9h-0.9v-0.9zm0 0.9v0.9h-0.9v-0.9zm2.7-8.1v0.9h-0.9v-0.9zm0 0.9v0.9h-0.9v-0.9zm0 0.9v0.9h-0.9v-0.9zm0 0.9v0.9h-0.9v-0.9zm0 0.9v0.9h-1v-0.9zm0 0.9v0.9h-0.9v-0.9zm0 1.8v0.9h-0.9v-0.9zm0 0.9v0.9h-0.9v-0.9zm0 0.9v0.9h-0.9v-0.9zm0 0.9v0.9h-0.9v-0.9zm0 0.9v0.9h-0.9v-0.9zm0 0.9v0.9h-0.9v-0.9zm0 0.9v1h-0.9v-1zm0.9 1v0.9h-0.9v-0.9zm0 0.9v0.9h-0.9v-0.9zm0 0.9v0.9h-0.9v-0.9zm0-2.8v1h-0.9v-1zm0-0.9v0.9h-0.9v-0.9zm0-0.9v0.9h-1v-0.9zm0-0.9v0.9h-0.9v-0.9zm0-0.9v0.9h-0.9v-0.9zm0-0.9v0.9h-0.9v-0.9zm0-0.9v0.9h-0.9v-0.9zm0-0.9v0.9h-0.9v-0.9zm0-0.9v0.9h-0.9v-0.9zm0-0.9v0.9h-0.9v-0.9zm-0.9 1.8v0.9h-0.9v-0.9zm0.9-2.7v0.9h-0.9v-0.9zm0-0.9v0.9h-0.9v-0.9zm0-0.9v0.9h-0.9v-0.9zm0-0.9v0.9h-0.9v-0.9zm-1.9 0v0.9h-0.9v-0.9zm-0.9 0v0.9h-0.9v-0.9zm0 0.9v0.9h-0.9v-0.9zm0.9 0v0.9h-0.9v-0.9zm0 0.9v0.9h-0.9v-0.9zm0 0.9v0.9h-0.9v-0.9zm0 0.9v0.9h-0.9v-0.9zm0 0.9v0.9h-0.9v-0.9zm0 0.9v0.9h-0.9v-0.9zm0 0.9v0.9h-0.9v-0.9zm-0.9 0.9v0.9h-0.9v-0.9zm0 0.9v0.9h-1v-0.9zm0-1.8v0.9h-0.9v-0.9zm0-0.9v0.9h-0.9v-0.9zm0-0.9v0.9h-0.9v-0.9zm0-0.9v0.9h-0.9v-0.9zm0-0.9v0.9h-0.9v-0.9zm0-0.9v0.9h-0.9v-0.9zm0.9 5.4v0.9h-0.9v-0.9zm0 0.9v0.9h-0.9v-0.9zm0 0.9v0.9h-0.9v-0.9zm0 0.9v0.9h-0.9v-0.9zm0 0.9v0.9h-0.9v-0.9zm0 0.9v1h-0.9v-1zm0 1v0.9h-0.9v-0.9zm0 0.9v0.9h-1v-0.9zm0 0.9v0.9h-0.9v-0.9zm0.9-0.9v0.9h-0.9v-0.9zm0-0.9v0.9h-0.9v-0.9zm1.8 0v0.9h-0.9v-0.9zm0.9 0v0.9h-0.9v-0.9zm0 0.9v0.9h-0.9v-0.9zm-0.9 0v0.9h-0.9v-0.9zm0-2.8v0.9h-0.9v-0.9zm0.9 0v0.9h-0.9v-0.9zm-0.9 3.7v0.9h-0.9v-0.9zm0.9 0v0.9h-0.9v-0.9zm0-2.8v1h-0.9v-1zm-0.9 0v1h-0.9v-1zm0-11.7v0.9h-0.9v-0.9zm0.9 0v0.9h-0.9v-0.9zm0 0.9v0.9h-0.9v-0.9zm-0.9 0v0.9h-1v-0.9zm0 0.9v0.9h-0.9v-0.9zm0.9 0v0.9h-0.9v-0.9zm0 0.9v0.9h-0.9v-0.9zm-0.9 0v0.9h-0.9v-0.9zm0 0.9v0.9h-0.9v-0.9zm0.9 0v0.9h-0.9v-0.9zm0.9 7.2v0.9h-0.9v-0.9zm0.9 0v0.9h-0.9v-0.9zm0.9 0v0.9h-0.9v-0.9zm0.9-0.9v0.9h-0.9v-0.9zm0.9-0.9v0.9h-0.9v-0.9zm0-0.9v0.9h-0.9v-0.9zm0-2.7v0.9h-0.9v-0.9zm-0.9-0.9v0.9h-0.9v-0.9zm-0.9-0.9v0.9h-0.9v-0.9zm-0.9 0v0.9h-1v-0.9zm-0.9 0v0.9h-0.9v-0.9zm0-3.6v0.9h-0.9v-0.9zm0.9 0v0.9h-0.9v-0.9zm0.9 0v0.9h-0.9v-0.9zm0.9 0v0.9h-0.9v-0.9zm0 0.9v0.9h-0.9v-0.9zm0 0.9v0.9h-0.9v-0.9zm0 0.9v0.9h-0.9v-0.9zm-0.9 0v0.9h-0.9v-0.9zm0-0.9v0.9h-0.9v-0.9zm-0.9 0v0.9h-0.9v-0.9zm-0.9 0v0.9h-0.9v-0.9zm0-0.9v0.9h-1v-0.9zm1 0v0.9h-1v-0.9zm1 0v0.9h-1v-0.9zm-1.8 1.8v0.9h-0.9v-0.9zm0.9 0v0.9h-0.9v-0.9zm1.8 0.9v0.9h-0.9v-0.9zm0.9 0.9v0.9h-0.9v-0.9zm0-0.9v0.9h-0.9v-0.9zm0-0.9v0.9h-0.9v-0.9zm0-0.9v0.9h-0.9v-0.9zm0-0.9v0.9h-0.9v-0.9zm0-0.9v0.9h-0.9v-0.9zm0 9.9v0.9h-0.9v-0.9zm0 0.9v0.9h-0.9v-0.9zm0 0.9v1h-0.9v-1zm0 1v0.9h-0.9v-0.9zm-0.9 0v0.9h-1v-0.9zm-0.9 0v0.9h-0.9v-0.9zm-0.9 0v0.9h-0.9v-0.9zm-0.9 0v0.9h-0.9v-0.9zm0-1v1h-0.9v-1zm0.9 0v1h-0.9v-1zm0.9 0v1h-0.9v-1zm0.9 0v1h-0.9v-1zm0-0.9v0.9h-0.9v-0.9zm-2.7 2.8v0.9h-0.9v-0.9zm0.9 0v0.9h-0.9v-0.9zm0.9 0v0.9h-0.9v-0.9zm0.9 0v0.9h-0.9v-0.9zm0.9 0v0.9h-0.9v-0.9zm0 0.9v0.9h-1v-0.9zm-0.9 0v0.9h-0.9v-0.9zm-0.9 0v0.9h-0.9v-0.9zm-0.9 0v0.9h-0.9v-0.9zm-0.9 0v0.9h-0.9v-0.9zm4.5-13.6v0.9h-0.9v-0.9zm0.9 0v0.9h-0.9v-0.9zm0 0.9v0.9h-0.9v-0.9zm0.9 0v0.9h-0.9v-0.9zm0 0.9v0.9h-0.9v-0.9zm0 0.9v0.9h-0.9v-0.9zm0.9 0v0.9h-0.9v-0.9zm0 0.9v0.9h-0.9v-0.9zm0 0.9v0.9h-0.9v-0.9zm0 2.7v0.9h-0.9v-0.9zm0 0.9v0.9h-0.9v-0.9zm0 0.9v0.9h-0.9v-0.9zm0 0.9v0.9h-0.9v-0.9zm-1 0.9v1h-0.9v-1zm-0.9 1v0.9h-0.9v-0.9zm-0.9 0.9v0.9h-0.9v-0.9zm0.9 0v0.9h-0.9v-0.9zm-0.9 0.9v0.9h-0.9v-0.9zm0-12.7v0.9h-0.9v-0.9zm0 0.9v0.9h-0.9v-0.9zm0 0.9v0.9h-0.9v-0.9zm0 0.9v0.9h-0.9v-0.9zm0 0.9v0.9h-0.9v-0.9zm0 2.7v0.9h-1v-0.9zm0 0.9v0.9h-0.9v-0.9zm0 0.9v0.9h-0.9v-0.9zm0 0.9v0.9h-0.9v-0.9zm0 0.9v1h-0.9v-1zm0 1v0.9h-0.9v-0.9zm0.9-1v1h-0.9v-1zm0-0.9v0.9h-0.9v-0.9zm0-0.9v0.9h-0.9v-0.9zm0-0.9v0.9h-0.9v-0.9zm0-0.9v0.9h-0.9v-0.9zm0-2.7v0.9h-0.9v-0.9zm0-0.9v0.9h-0.9v-0.9zm0-0.9v0.9h-0.9v-0.9zm0-0.9v0.9h-0.9v-0.9zm0.9 1.8v0.9h-0.9v-0.9zm0 0.9v0.9h-1v-0.9zm0 2.7v0.9h-0.9v-0.9zm0 0.9v0.9h-0.9v-0.9zm0 0.9v0.9h-0.9v-0.9zm0 0.9v0.9h-0.9v-0.9zm-9.1 9.1v0.9h-0.9v-0.9zm0 0.9v0.9h-0.9v-0.9zm0-1.8v0.9h-0.9v-0.9zm6.4-12.7v0.9h-0.9v-0.9zm0.9 0v0.9h-0.9v-0.9zm0.9 0v0.9h-0.9v-0.9zm0.9 0v0.9h-0.9v-0.9zm0.9 0v0.9h-0.9v-0.9zm0 0.9v0.9h-0.9v-0.9zm-1 0v0.9h-0.9v-0.9zm-0.9 0v0.9h-0.9v-0.9zm-0.9 0v0.9h-0.9v-0.9zm-0.9 0v0.9h-0.9v-0.9zm2.7 6.4v0.9h-0.9v-0.9zm0.9 0.9v0.9h-0.9v-0.9zm0 0.9v0.9h-0.9v-0.9zm0 0.9v0.9h-0.9v-0.9zm0 0.9v0.9h-0.9v-0.9zm0 0.9v0.9h-0.9v-0.9zm0 0.9v0.9h-0.9v-0.9zm0 2.7v0.9h-0.9v-0.9zm0-0.9v0.9h-0.9v-0.9zm0-0.9v0.9h-0.9v-0.9zm-1 1.8v0.9h-0.9v-0.9zm-0.9 0v0.9h-0.9v-0.9zm-0.9 0v0.9h-0.9v-0.9zm0-0.9v0.9h-0.9v-0.9zm0-0.9v0.9h-0.9v-0.9zm0-0.9v0.9h-0.9v-0.9zm0-0.9v0.9h-0.9v-0.9zm0.9 0v0.9h-0.9v-0.9zm0-0.9v0.9h-0.9v-0.9zm0.9 0v0.9h-0.9v-0.9zm0 0.9v0.9h-0.9v-0.9zm0 0.9v0.9h-0.9v-0.9zm0 0.9v0.9h-1v-0.9zm0 0.9v0.9h-0.9v-0.9zm-0.9 0v0.9h-0.9v-0.9zm0-0.9v0.9h-0.9v-0.9zm0-0.9v0.9h-0.9v-0.9zm-1.8 2.7v0.9h-0.9v-0.9zm0-0.9v0.9h-0.9v-0.9zm0-0.9v0.9h-0.9v-0.9zm0-0.9v0.9h-0.9v-0.9zm0-0.9v0.9h-0.9v-0.9zm0-0.9v0.9h-1v-0.9zm0-0.9v0.9h-0.9v-0.9zm0-0.9v0.9h-0.9v-0.9zm0.9 0v0.9h-0.9v-0.9zm0.9 0v0.9h-0.9v-0.9zm0.9 0v0.9h-0.9v-0.9zm0-0.9v0.9h-0.9v-0.9zm-0.9 0v0.9h-0.9v-0.9zm0 1.8v0.9h-0.9v-0.9zm-0.9 0v0.9h-0.9v-0.9zm0 0.9v0.9h-0.9v-0.9zm1.8-0.9v0.9h-0.9v-0.9zm7.3 0.9v-0.9h0.9v0.9zm-0.9 0v-0.9h0.9v0.9zm-0.9 0v-0.9h0.9v0.9zm-0.9 0v-0.9h0.9v0.9zm-0.9 0v-0.9h0.9v0.9zm0 0.9v-0.9h0.9v0.9zm0 0.9v-0.9h0.9v0.9zm0.9 0v-0.9h0.9v0.9zm0.9 0v-0.9h0.9v0.9zm0.9 0v-0.9h0.9v0.9zm0-0.9v-0.9h0.9v0.9zm0.9 0v-0.9h1v0.9zm-1.9 0v-0.9h0.9v0.9zm-0.9 0v-0.9h0.9v0.9zm2.8 0.9v-0.9h0.9v0.9zm0.9 0v-0.9h0.9v0.9zm0 0.9v-0.9h0.9v0.9zm-0.9 0v-0.9h0.9v0.9zm-0.9 0v-0.9h0.9v0.9zm-0.9 0v-0.9h0.9v0.9zm-0.9 0v-0.9h0.9v0.9zm0 0.9v-0.9h0.9v0.9zm0.9 0v-0.9h0.9v0.9zm0.9 0v-0.9h0.9v0.9zm0.9 0v-0.9h1v0.9zm0.9 0v-0.9h0.9v0.9zm-1.8 0.9v-0.9h0.9v0.9zm-0.9 0v-0.9h0.9v0.9zm1.8 0v-0.9h0.9v0.9zm0 0.9v-0.9h0.9v0.9zm0.9 0v-0.9h0.9v0.9zm0-0.9v-0.9h0.9v0.9zm0.9 0v-0.9h0.9v0.9zm0 0.9v-0.9h0.9v0.9zm0-1.8v-0.9h0.9v0.9zm1 0v-0.9h0.9v0.9zm0-0.9v-0.9h0.9v0.9zm-0.9 0v-0.9h0.9v0.9zm1.8 0v-0.9h0.9v0.9zm0 0.9v-0.9h0.9v0.9zm0 0.9v-0.9h0.9v0.9zm0 0.9v-0.9h0.9v0.9zm-0.9 0v-0.9h0.9v0.9zm0-0.9v-0.9h0.9v0.9zm1.8 0.9v-0.9h0.9v0.9zm1.9-0.9v-0.9h0.9v0.9zm0-0.9v-0.9h0.9v0.9zm0-0.9v-0.9h0.9v0.9zm-0.9 0v-0.9h0.9v0.9zm-0.9 0v-0.9h0.9v0.9zm0 0.9v-0.9h0.9v0.9zm0 0.9v-0.9h0.9v0.9zm0.9 0v-0.9h0.9v0.9zm0-0.9v-0.9h0.9v0.9zm1.8 0v-0.9h0.9v0.9zm0 0.9v-0.9h0.9v0.9zm1 0v-0.9h0.9v0.9zm0-0.9v-0.9h0.9v0.9zm0.9 0v-0.9h0.9v0.9zm0-0.9v-0.9h0.9v0.9zm0-0.9v-0.9h0.9v0.9zm-0.9 0v-0.9h0.9v0.9zm0 0.9v-0.9h0.9v0.9zm-0.9 0v-0.9h0.9v0.9zm0-0.9v-0.9h0.9v0.9zm-0.9 0v-0.9h0.9v0.9zm3.6 0v-0.9h0.9v0.9zm0-0.9v-0.9h1v0.9zm0-0.9v-0.9h0.9v0.9zm0-0.9v-0.9h0.9v0.9zm0-0.9v-0.9h0.9v0.9zm0-0.9v-0.9h0.9v0.9zm0-0.9v-0.9h0.9v0.9zm0-0.9v-1h0.9v1zm0-1v-0.9h0.9v0.9zm0-0.9v-0.9h0.9v0.9zm-0.9 0v-0.9h0.9v0.9zm0-0.9v-0.9h0.9v0.9zm0.9 0v-0.9h0.9v0.9zm-1.8 0v-0.9h0.9v0.9zm-0.9 0v-0.9h0.9v0.9zm-0.9 0v-0.9h0.9v0.9zm-0.9 0v-0.9h0.9v0.9zm0.9 0.9v-0.9h0.9v0.9zm0 0.9v-0.9h1v0.9zm0 1v-1h0.9v1zm0 0.9v-0.9h0.9v0.9zm0 0.9v-0.9h0.9v0.9zm0 0.9v-0.9h0.9v0.9zm0 0.9v-0.9h0.9v0.9zm0 0.9v-0.9h0.9v0.9zm0 0.9v-0.9h0.9v0.9zm0.9 0v-0.9h0.9v0.9zm0.9 0v-0.9h0.9v0.9zm0.9 0v-0.9h0.9v0.9zm0-0.9v-0.9h1v0.9zm0-0.9v-0.9h0.9v0.9zm0-0.9v-0.9h0.9v0.9zm0-0.9v-0.9h0.9v0.9zm0-0.9v-0.9h0.9v0.9zm0-0.9v-1h0.9v1zm0-1v-0.9h0.9v0.9zm-0.9-0.9v-0.9h0.9v0.9zm-0.9 0v-0.9h0.9v0.9zm0 0.9v-0.9h0.9v0.9zm0 1v-1h0.9v1zm0 0.9v-0.9h0.9v0.9zm0 0.9v-0.9h0.9v0.9zm0.9 0v-0.9h0.9v0.9zm0 0.9v-0.9h1v0.9zm0 0.9v-0.9h0.9v0.9zm0 0.9v-0.9h0.9v0.9zm-0.9 0v-0.9h0.9v0.9zm0-0.9v-0.9h0.9v0.9zm0-0.9v-0.9h0.9v0.9zm0.9-2.7v-1h0.9v1zm0-1v-0.9h0.9v0.9zm0 1.9v-0.9h0.9v0.9zm-8.2-2.8v-0.9h1v0.9zm-1 0v-0.9h1v0.9zm-1 0v-0.9h1v0.9zm-1 0v-0.9h1v0.9zm-1 0v-0.9h1v0.9zm0-0.9v-0.9h0.9v0.9zm0.9 0v-0.9h0.9v0.9zm0.9 0v-0.9h0.9v0.9zm0.9 0v-0.9h0.9v0.9zm0.9 0v-0.9h0.9v0.9zm0.9 0v-0.9h0.9v0.9zm0-0.9v-0.9h0.9v0.9zm-0.9 0v-0.9h0.9v0.9zm-0.9 0v-0.9h0.9v0.9zm-0.9 0v-0.9h0.9v0.9zm0-0.9v-0.9h1v0.9zm-1 0v-0.9h1v0.9zm0 0.9v-0.9h0.9v0.9zm0.9-1.8v-0.9h0.9v0.9zm0.9 0v-0.9h0.9v0.9zm0 0.9v-0.9h0.9v0.9zm0.9 0v-0.9h0.9v0.9zm0-0.9v-0.9h0.9v0.9zm0-0.9v-0.9h0.9v0.9zm0.9 0v-0.9h0.9v0.9zm0.9 0v-0.9h1v0.9zm0.9 0v-0.9h0.9v0.9zm0.9 0v-0.9h0.9v0.9zm0.9 0v-0.9h0.9v0.9zm0.9 0v-0.9h0.9v0.9zm0.9 0v-0.9h0.9v0.9zm-0.9 0.9v-0.9h0.9v0.9zm-0.9 0v-0.9h0.9v0.9zm-0.9 0v-0.9h0.9v0.9zm-0.9 0v-0.9h0.9v0.9zm-0.9 0v-0.9h0.9v0.9zm-0.9 0v-0.9h0.9v0.9zm0 0.9v-0.9h0.9v0.9zm0.9 0v-0.9h1v0.9zm0.9 0v-0.9h0.9v0.9zm0.9 0v-0.9h0.9v0.9zm0.9 0v-0.9h0.9v0.9zm0.9 0v-0.9h0.9v0.9zm0.9-0.9v-0.9h0.9v0.9zm0.9 0v-0.9h0.9v0.9zm0.9 0v-0.9h1v0.9zm0 0.9v-0.9h0.9v0.9zm0.9 0v-0.9h0.9v0.9zm0 0.9v-0.9h0.9v0.9zm-0.9 0v-0.9h0.9v0.9zm-0.9 0v-0.9h0.9v0.9zm-0.9 0v-0.9h0.9v0.9zm-0.9 0v-0.9h0.9v0.9zm-0.9 0v-0.9h0.9v0.9zm-0.9 0v-0.9h0.9v0.9zm-0.9 0v-0.9h0.9v0.9zm-0.9 0v-0.9h0.9v0.9zm4.5-0.9v-0.9h0.9v0.9zm0.9 0v-0.9h0.9v0.9zm-9.9 8.2v-0.9h0.9v0.9zm0.9 0v-0.9h0.9v0.9zm0.9 0v-0.9h0.9v0.9zm0.9 0v-0.9h0.9v0.9zm-1.8-0.9v-0.9h0.9v0.9zm0.9 0v-0.9h0.9v0.9zm1.8 0v-0.9h0.9v0.9zm1 0v-0.9h0.9v0.9zm0.9 0v-0.9h0.9v0.9zm0.9 0v-0.9h0.9v0.9zm0.9 0v-0.9h0.9v0.9zm0.9 0v-0.9h0.9v0.9zm-5.4 0v-0.9h0.9v0.9zm-2.7 0v-0.9h0.9v0.9zm0.9-0.9v-0.9h0.9v0.9zm0.9 0v-0.9h0.9v0.9zm0.9 0v-0.9h0.9v0.9zm0.9 0v-0.9h0.9v0.9zm0.9 0v-0.9h0.9v0.9zm1 0v-0.9h0.9v0.9zm0.9 0v-0.9h0.9v0.9zm0.9 0v-0.9h0.9v0.9zm0.9 0v-0.9h0.9v0.9zm0-0.9v-0.9h0.9v0.9zm-0.9 0v-0.9h0.9v0.9zm-0.9 0v-0.9h0.9v0.9zm-1.8 0v-0.9h0.9v0.9zm-0.9 0v-0.9h0.9v0.9zm-0.9 0v-0.9h0.9v0.9zm2.7 0v-0.9h0.9v0.9zm8.2 5.4v0.9h-0.9v-0.9zm0 0.9v0.9h-0.9v-0.9zm0 0.9v0.9h-0.9v-0.9zm0 0.9v0.9h-0.9v-0.9zm-0.9 0v0.9h-0.9v-0.9zm0-0.9v0.9h-1v-0.9zm-0.9 0.9v0.9h-0.9v-0.9zm-0.9 0v0.9h-0.9v-0.9zm-0.9 0v0.9h-0.9v-0.9zm-0.9-3.6v0.9h-0.9v-0.9zm-6.4 3.6v0.9h-0.9v-0.9zm1.8-6.3v0.9h-0.9v-0.9zm13.7 6.3v0.9h-0.9v-0.9zm0-0.9v0.9h-1v-0.9zm0-0.9v0.9h-0.9v-0.9zm0-0.9v0.9h-0.9v-0.9zm0-0.9v0.9h-0.9v-0.9zm0-0.9v0.9h-0.9v-0.9zm0-0.9v0.9h-0.9v-0.9zm0-0.9v0.9h-0.9v-0.9zm0-0.9v0.9h-0.9v-0.9zm0-0.9v0.9h-0.9v-0.9zm0-0.9v0.9h-0.9v-0.9zm0-1v1h-0.9v-1zm0-0.9v0.9h-0.9v-0.9zm0-0.9v0.9h-0.9v-0.9zm0-0.9v0.9h-0.9v-0.9zm0.9 0v0.9h-0.9v-0.9zm0 0.9v0.9h-1v-0.9zm0 0.9v0.9h-0.9v-0.9zm0 0.9v1h-0.9v-1zm0 1v0.9h-0.9v-0.9zm0 0.9v0.9h-0.9v-0.9zm0 0.9v0.9h-0.9v-0.9zm0.9 0.9v0.9h-0.9v-0.9zm0 0.9v0.9h-0.9v-0.9zm0 0.9v0.9h-0.9v-0.9zm0 0.9v0.9h-0.9v-0.9zm0 0.9v0.9h-0.9v-0.9zm0 0.9v0.9h-0.9v-0.9zm0 0.9v0.9h-0.9v-0.9zm0 0.9v0.9h-0.9v-0.9zm0.9 0v0.9h-0.9v-0.9zm0.9 0v0.9h-0.9v-0.9zm0-0.9v0.9h-1v-0.9zm0-0.9v0.9h-0.9v-0.9zm0-0.9v0.9h-0.9v-0.9zm0-0.9v0.9h-0.9v-0.9zm0-0.9v0.9h-0.9v-0.9zm0-0.9v0.9h-0.9v-0.9zm0-0.9v0.9h-0.9v-0.9zm-0.9 0v0.9h-0.9v-0.9zm0-0.9v0.9h-0.9v-0.9zm0 1.8v0.9h-0.9v-0.9zm0 0.9v0.9h-0.9v-0.9zm0 0.9v0.9h-0.9v-0.9zm0 0.9v0.9h-0.9v-0.9zm0 0.9v0.9h-1v-0.9zm0 0.9v0.9h-0.9v-0.9zm-1.8 0.9v0.9h-0.9v-0.9zm0-0.9v0.9h-0.9v-0.9zm0-0.9v0.9h-0.9v-0.9zm0-0.9v0.9h-0.9v-0.9zm0-0.9v0.9h-0.9v-0.9zm0-0.9v0.9h-0.9v-0.9zm0-0.9v0.9h-0.9v-0.9zm0-0.9v0.9h-0.9v-0.9zm-0.9-10v0.9h-1v-0.9zm0 0.9v0.9h-0.9v-0.9zm0 0.9v0.9h-0.9v-0.9zm0 0.9v0.9h-0.9v-0.9zm2.7-1.8v0.9h-0.9v-0.9zm0 0.9v0.9h-0.9v-0.9zm0 0.9v0.9h-0.9v-0.9zm0 0.9v0.9h-0.9v-0.9zm0 0.9v0.9h-0.9v-0.9zm0 0.9v0.9h-0.9v-0.9zm0 0.9v1h-0.9v-1zm0.9 1v0.9h-0.9v-0.9zm0 0.9v0.9h-0.9v-0.9zm0 0.9v0.9h-0.9v-0.9zm0-2.8v1h-0.9v-1zm0-0.9v0.9h-0.9v-0.9zm0-0.9v0.9h-0.9v-0.9zm0-0.9v0.9h-1v-0.9zm0-0.9v0.9h-0.9v-0.9zm0-0.9v0.9h-0.9v-0.9zm0-0.9v0.9h-0.9v-0.9zm0-0.9v0.9h-0.9v-0.9zm-0.9 0v0.9h-0.9v-0.9zm-0.9 0v0.9h-0.9v-0.9zm0 0.9v0.9h-0.9v-0.9zm-0.9 0.9v0.9h-0.9v-0.9zm0 0.9v0.9h-0.9v-0.9zm0-1.8v0.9h-0.9v-0.9zm0-0.9v0.9h-1v-0.9zm1 1.8v0.9h-1v-0.9zm0 0.9v0.9h-0.9v-0.9zm0 0.9v0.9h-0.9v-0.9zm0 0.9v0.9h-0.9v-0.9zm0 0.9v0.9h-0.9v-0.9zm0 0.9v1h-0.9v-1zm0 1v0.9h-0.9v-0.9zm0 0.9v0.9h-0.9v-0.9zm0 0.9v0.9h-0.9v-0.9zm0.9-0.9v0.9h-0.9v-0.9zm0-0.9v0.9h-0.9v-0.9zm7.2 9v0.9h-0.9v-0.9zm0.9 0v0.9h-0.9v-0.9zm0.9 0v0.9h-0.9v-0.9zm0.9 0v0.9h-0.9v-0.9zm0.9-0.9v0.9h-0.9v-0.9zm0-0.9v0.9h-0.9v-0.9zm0 1.8v0.9h-0.9v-0.9zm-0.9-0.9v0.9h-0.9v-0.9zm-0.9 0v0.9h-0.9v-0.9zm-0.9 0v0.9h-0.9v-0.9zm-0.9 0v0.9h-0.9v-0.9zm0-0.9v0.9h-1v-0.9zm0-0.9v0.9h-0.9v-0.9zm0.9 0v0.9h-0.9v-0.9zm0.9 0v0.9h-0.9v-0.9zm0.9 0v0.9h-0.9v-0.9zm0.9 0v0.9h-0.9v-0.9zm-0.9 0.9v0.9h-0.9v-0.9zm-0.9 0v0.9h-0.9v-0.9zm-0.9 0v0.9h-0.9v-0.9zm2.7-10.9v0.9h-0.9v-0.9zm-0.9 0v0.9h-0.9v-0.9zm-1.8 0v0.9h-0.9v-0.9zm0 0.9v0.9h-0.9v-0.9zm0 0.9v0.9h-0.9v-0.9zm-0.9 0.9v1h-1v-1zm0 1v0.9h-0.9v-0.9zm0 0.9v0.9h-0.9v-0.9zm0 0.9v0.9h-0.9v-0.9zm0 0.9v0.9h-0.9v-0.9zm0 0.9v0.9h-0.9v-0.9zm0 0.9v0.9h-0.9v-0.9zm0 0.9v0.9h-0.9v-0.9zm0.9 0v0.9h-0.9v-0.9zm0.9 0v0.9h-0.9v-0.9zm0.9 0v0.9h-0.9v-0.9zm0.9 0v0.9h-0.9v-0.9zm0-0.9v0.9h-0.9v-0.9zm0-1.8v0.9h-0.9v-0.9zm0-0.9v0.9h-0.9v-0.9zm0-0.9v0.9h-0.9v-0.9zm0-0.9v0.9h-0.9v-0.9zm0-1v1h-1v-1zm0-0.9v0.9h-0.9v-0.9zm0-0.9v0.9h-0.9v-0.9zm-0.9 3.7v0.9h-0.9v-0.9zm0 1.8v0.9h-0.9v-0.9zm0 0.9v0.9h-0.9v-0.9zm0 0.9v0.9h-0.9v-0.9zm0.9-0.9v0.9h-0.9v-0.9zm-0.9-4.6v1h-0.9v-1zm-0.9 0v1h-0.9v-1zm-0.9 0v1h-1v-1zm0 1v0.9h-0.9v-0.9zm0 0.9v0.9h-0.9v-0.9zm0 0.9v0.9h-0.9v-0.9zm0 0.9v0.9h-0.9v-0.9zm0 0.9v0.9h-0.9v-0.9zm0 0.9v0.9h-0.9v-0.9zm0.9 0v0.9h-0.9v-0.9zm0-0.9v0.9h-0.9v-0.9zm0-0.9v0.9h-0.9v-0.9zm0-0.9v0.9h-0.9v-0.9zm0-0.9v0.9h-0.9v-0.9zm0-0.9v0.9h-0.9v-0.9zm0.9 0v0.9h-0.9v-0.9zm0 1.8v0.9h-0.9v-0.9zm0-3.7v0.9h-0.9v-0.9zm0-0.9v0.9h-1v-0.9zm-0.9 0v0.9h-0.9v-0.9zm0 0.9v0.9h-0.9v-0.9zm-1.8 0v0.9h-0.9v-0.9zm0-0.9v0.9h-0.9v-0.9zm0-0.9v0.9h-0.9v-0.9zm1.8 0v0.9h-0.9v-0.9zm-1.8-3.6v0.9h-0.9v-0.9zm0 0.9v0.9h-0.9v-0.9zm0.9 0v0.9h-0.9v-0.9zm0.9 0v0.9h-0.9v-0.9zm0 0.9v0.9h-0.9v-0.9zm0.9 0v0.9h-0.9v-0.9zm0 0.9v0.9h-1v-0.9zm-0.9 0v0.9h-0.9v-0.9zm-0.9 0v0.9h-0.9v-0.9zm0-0.9v0.9h-0.9v-0.9zm-0.9 0v0.9h-0.9v-0.9zm-0.9 0v0.9h-0.9v-0.9zm0 0.9v0.9h-0.9v-0.9zm0.9 0v0.9h-0.9v-0.9zm-0.9 0.9v0.9h-0.9v-0.9zm-0.9-0.9v0.9h-1v-0.9zm0-0.9v0.9h-0.9v-0.9zm0-0.9v0.9h-0.9v-0.9zm0-0.9v0.9h-0.9v-0.9zm0.9 0v0.9h-0.9v-0.9zm0 0.9v0.9h-0.9v-0.9zm-1.8-0.9v0.9h-0.9v-0.9zm0 0.9v0.9h-0.9v-0.9zm0 0.9v0.9h-0.9v-0.9zm0 0.9v0.9h-0.9v-0.9zm-0.9-2.7v0.9h-0.9v-0.9zm0 0.9v0.9h-1v-0.9zm-0.9 0v0.9h-0.9v-0.9zm0 0.9v0.9h-0.9v-0.9zm-0.9 0v0.9h-0.9v-0.9zm0 0.9v0.9h-0.9v-0.9zm0.9 0v0.9h-0.9v-0.9zm0.9 0v0.9h-0.9v-0.9zm0-0.9v0.9h-0.9v-0.9zm-1.8 1.8v0.9h-0.9v-0.9zm0.9-3.6v0.9h-0.9v-0.9zm-0.9 0.9v0.9h-0.9v-0.9zm12.7-6.3v0.9h-0.9v-0.9zm0 0.9v0.9h-0.9v-0.9zm0 0.9v0.9h-0.9v-0.9zm2.7-1.8v0.9h-0.9v-0.9zm0 0.9v0.9h-0.9v-0.9zm0 0.9v0.9h-0.9v-0.9zm0.9 0v0.9h-0.9v-0.9zm0-0.9v0.9h-1v-0.9zm0-0.9v0.9h-0.9v-0.9zm-1.8 0v0.9h-0.9v-0.9zm-0.9 0v0.9h-0.9v-0.9zm0 0.9v0.9h-0.9v-0.9zm0.9 0v0.9h-0.9v-0.9zm0 0.9v0.9h-0.9v-0.9zm-0.9 0v0.9h-0.9v-0.9zm-0.9 0.9v0.9h-0.9v-0.9zm0.9 0v0.9h-0.9v-0.9zm0.9 0v0.9h-0.9v-0.9zm0.9 0v0.9h-0.9v-0.9zm0.9 0v0.9h-0.9v-0.9zm-3.7 19v0.9h-0.9v-0.9zm0-0.9v0.9h-0.9v-0.9zm0-0.9v0.9h-0.9v-0.9zm0-0.9v0.9h-0.9v-0.9zm0-0.9v0.9h-0.9v-0.9zm0-0.9v0.9h-0.9v-0.9zm0-0.9v0.9h-0.9v-0.9zm0-0.9v0.9h-0.9v-0.9zm0-0.9v0.9h-0.9v-0.9zm0-0.9v0.9h-0.9v-0.9zm0-0.9v0.9h-1v-0.9zm0-1v1h-0.9v-1zm0-0.9v0.9h-0.9v-0.9zm0-0.9v0.9h-0.9v-0.9zm0-0.9v0.9h-0.9v-0.9zm0.9 0v0.9h-0.9v-0.9zm0 0.9v0.9h-0.9v-0.9zm0 0.9v0.9h-0.9v-0.9zm0 0.9v1h-0.9v-1zm0 1v0.9h-0.9v-0.9zm0 0.9v0.9h-0.9v-0.9zm0 0.9v0.9h-0.9v-0.9zm0.9 0.9v0.9h-0.9v-0.9zm0 0.9v0.9h-0.9v-0.9zm0 0.9v0.9h-0.9v-0.9zm0 0.9v0.9h-0.9v-0.9zm0 0.9v0.9h-1v-0.9zm0 0.9v0.9h-0.9v-0.9zm0 0.9v0.9h-0.9v-0.9zm0 0.9v0.9h-0.9v-0.9zm0.9 0v0.9h-0.9v-0.9zm0.9 0v0.9h-0.9v-0.9zm0-0.9v0.9h-0.9v-0.9zm0-0.9v0.9h-0.9v-0.9zm0-0.9v0.9h-0.9v-0.9zm0-0.9v0.9h-0.9v-0.9zm0-0.9v0.9h-0.9v-0.9zm0-0.9v0.9h-0.9v-0.9zm0-0.9v0.9h-0.9v-0.9zm-0.9 0v0.9h-0.9v-0.9zm0-0.9v0.9h-0.9v-0.9zm0 1.8v0.9h-1v-0.9zm0 0.9v0.9h-0.9v-0.9zm0 0.9v0.9h-0.9v-0.9zm0 0.9v0.9h-0.9v-0.9zm0 0.9v0.9h-0.9v-0.9zm0 0.9v0.9h-0.9v-0.9zm-1.8 0.9v0.9h-0.9v-0.9zm0-0.9v0.9h-0.9v-0.9zm0-0.9v0.9h-0.9v-0.9zm0-0.9v0.9h-0.9v-0.9zm0-0.9v0.9h-1v-0.9zm0-0.9v0.9h-0.9v-0.9zm0-0.9v0.9h-0.9v-0.9zm0-0.9v0.9h-0.9v-0.9zm-0.9-8.2v0.9h-0.9v-0.9zm0 0.9v0.9h-0.9v-0.9zm2.7-0.9v0.9h-0.9v-0.9zm0 0.9v0.9h-0.9v-0.9zm0 0.9v0.9h-0.9v-0.9zm0 0.9v0.9h-0.9v-0.9zm0 0.9v0.9h-0.9v-0.9zm0 0.9v1h-0.9v-1zm0.9 1v0.9h-0.9v-0.9zm0 0.9v0.9h-0.9v-0.9zm0 0.9v0.9h-0.9v-0.9zm0-2.8v1h-0.9v-1zm0-0.9v0.9h-1v-0.9zm0-0.9v0.9h-0.9v-0.9zm0-0.9v0.9h-0.9v-0.9zm0-0.9v0.9h-0.9v-0.9zm0-0.9v0.9h-0.9v-0.9zm-2.7 0v0.9h-0.9v-0.9zm0 0.9v0.9h-0.9v-0.9zm0.9-0.9v0.9h-0.9v-0.9zm0 0.9v0.9h-0.9v-0.9zm0 0.9v0.9h-0.9v-0.9zm0 0.9v0.9h-0.9v-0.9zm0 0.9v0.9h-0.9v-0.9zm0 0.9v1h-1v-1zm0 1v0.9h-0.9v-0.9zm0 0.9v0.9h-0.9v-0.9zm0 0.9v0.9h-0.9v-0.9zm0.9-0.9v0.9h-0.9v-0.9zm0-0.9v0.9h-0.9v-0.9zm0-6.4v0.9h-0.9v-0.9zm0.9 0v0.9h-0.9v-0.9zm-1.8 0v0.9h-0.9v-0.9zm-0.9 0v0.9h-0.9v-0.9zm-0.9 0v0.9h-0.9v-0.9zm8.1 15.4v0.9h-0.9v-0.9zm0-0.9v0.9h-0.9v-0.9zm0-0.9v0.9h-0.9v-0.9zm0-0.9v0.9h-0.9v-0.9zm0-0.9v0.9h-0.9v-0.9zm0-0.9v0.9h-0.9v-0.9zm0-0.9v0.9h-0.9v-0.9zm0-0.9v0.9h-0.9v-0.9zm0-0.9v0.9h-0.9v-0.9zm0-0.9v0.9h-0.9v-0.9zm0-0.9v0.9h-0.9v-0.9zm0-1v1h-1v-1zm0-0.9v0.9h-0.9v-0.9zm0-0.9v0.9h-0.9v-0.9zm0-0.9v0.9h-0.9v-0.9zm0.9 0v0.9h-0.9v-0.9zm0 0.9v0.9h-0.9v-0.9zm0 0.9v0.9h-0.9v-0.9zm0 0.9v1h-0.9v-1zm0 1v0.9h-0.9v-0.9zm0 0.9v0.9h-0.9v-0.9zm0 0.9v0.9h-0.9v-0.9zm0.9 0.9v0.9h-0.9v-0.9zm0 0.9v0.9h-0.9v-0.9zm0 0.9v0.9h-0.9v-0.9zm0 0.9v0.9h-0.9v-0.9zm0 0.9v0.9h-0.9v-0.9zm0 0.9v0.9h-1v-0.9zm0 0.9v0.9h-0.9v-0.9zm0 0.9v0.9h-0.9v-0.9zm0.9 0v0.9h-0.9v-0.9zm0.9 0v0.9h-0.9v-0.9zm0-0.9v0.9h-0.9v-0.9zm0-0.9v0.9h-0.9v-0.9zm0-0.9v0.9h-0.9v-0.9zm0-0.9v0.9h-0.9v-0.9zm0-0.9v0.9h-0.9v-0.9zm0-0.9v0.9h-0.9v-0.9zm0-0.9v0.9h-0.9v-0.9zm-0.9 0v0.9h-0.9v-0.9zm0-0.9v0.9h-0.9v-0.9zm0 1.8v0.9h-0.9v-0.9zm0 0.9v0.9h-1v-0.9zm0 0.9v0.9h-0.9v-0.9zm0 0.9v0.9h-0.9v-0.9zm0 0.9v0.9h-0.9v-0.9zm0 0.9v0.9h-0.9v-0.9zm-1.8 0.9v0.9h-0.9v-0.9zm0-0.9v0.9h-0.9v-0.9zm0-0.9v0.9h-0.9v-0.9zm0-0.9v0.9h-0.9v-0.9zm0-0.9v0.9h-0.9v-0.9zm0-0.9v0.9h-1v-0.9zm0-0.9v0.9h-0.9v-0.9zm0-0.9v0.9h-0.9v-0.9zm-0.9-10v0.9h-0.9v-0.9zm0 0.9v0.9h-0.9v-0.9zm0 0.9v0.9h-0.9v-0.9zm0 0.9v0.9h-0.9v-0.9zm2.7-1.8v0.9h-0.9v-0.9zm0 0.9v0.9h-0.9v-0.9zm0 0.9v0.9h-0.9v-0.9zm0 0.9v0.9h-0.9v-0.9zm0 0.9v0.9h-0.9v-0.9zm0 0.9v0.9h-0.9v-0.9zm0 0.9v1h-0.9v-1zm0.9 1v0.9h-0.9v-0.9zm0 0.9v0.9h-0.9v-0.9zm0 0.9v0.9h-1v-0.9zm0-2.8v1h-0.9v-1zm0-0.9v0.9h-0.9v-0.9zm0-0.9v0.9h-0.9v-0.9zm0-0.9v0.9h-0.9v-0.9zm0-0.9v0.9h-0.9v-0.9zm0-0.9v0.9h-0.9v-0.9zm0-0.9v0.9h-0.9v-0.9zm0-0.9v0.9h-0.9v-0.9zm-0.9 0v0.9h-0.9v-0.9zm-0.9 0v0.9h-0.9v-0.9zm0 0.9v0.9h-0.9v-0.9zm-1 0.9v0.9h-0.9v-0.9zm0 0.9v0.9h-0.9v-0.9zm0-1.8v0.9h-0.9v-0.9zm0-0.9v0.9h-0.9v-0.9zm0.9 1.8v0.9h-0.9v-0.9zm0 0.9v0.9h-0.9v-0.9zm0 0.9v0.9h-0.9v-0.9zm0 0.9v0.9h-0.9v-0.9zm0 0.9v0.9h-0.9v-0.9zm0 0.9v1h-0.9v-1zm0 1v0.9h-0.9v-0.9zm0 0.9v0.9h-0.9v-0.9zm0 0.9v0.9h-0.9v-0.9zm0.9-0.9v0.9h-0.9v-0.9zm0-0.9v0.9h-0.9v-0.9zm5.4 9v0.9h-0.9v-0.9zm0.9 0v0.9h-0.9v-0.9zm0.9 0v0.9h-0.9v-0.9zm0.9 0v0.9h-0.9v-0.9zm0.9-0.9v0.9h-0.9v-0.9zm0-0.9v0.9h-0.9v-0.9zm0 1.8v0.9h-0.9v-0.9zm-0.9-0.9v0.9h-0.9v-0.9zm-0.9 0v0.9h-1v-0.9zm-0.9 0v0.9h-0.9v-0.9zm-0.9 0v0.9h-0.9v-0.9zm0-0.9v0.9h-0.9v-0.9zm0-0.9v0.9h-0.9v-0.9zm0.9 0v0.9h-0.9v-0.9zm0.9 0v0.9h-0.9v-0.9zm0.9 0v0.9h-0.9v-0.9zm0.9 0v0.9h-0.9v-0.9zm-0.9 0.9v0.9h-0.9v-0.9zm-0.9 0v0.9h-0.9v-0.9zm-0.9 0v0.9h-0.9v-0.9zm1.8-10.9v0.9h-0.9v-0.9zm-1.9 0v0.9h-0.9v-0.9zm0 0.9v0.9h-0.9v-0.9zm0 0.9v0.9h-0.9v-0.9zm-0.9 0.9v1h-0.9v-1zm0 1v0.9h-0.9v-0.9zm0 0.9v0.9h-0.9v-0.9zm0 0.9v0.9h-0.9v-0.9zm0 0.9v0.9h-0.9v-0.9zm0 0.9v0.9h-0.9v-0.9zm0 0.9v0.9h-0.9v-0.9zm0 0.9v0.9h-0.9v-0.9zm0.9 0v0.9h-0.9v-0.9zm0.9 0v0.9h-0.9v-0.9zm0.9 0v0.9h-0.9v-0.9zm0.9 0v0.9h-0.9v-0.9zm0-0.9v0.9h-0.9v-0.9zm0-1.8v0.9h-1v-0.9zm0-0.9v0.9h-0.9v-0.9zm0-0.9v0.9h-0.9v-0.9zm0-0.9v0.9h-0.9v-0.9zm0-1v1h-0.9v-1zm0-0.9v0.9h-0.9v-0.9zm-0.9 2.8v0.9h-0.9v-0.9zm0 1.8v0.9h-0.9v-0.9zm0 0.9v0.9h-0.9v-0.9zm0 0.9v0.9h-0.9v-0.9zm0.9-0.9v0.9h-0.9v-0.9zm-0.9-4.6v1h-0.9v-1zm-0.9 0v1h-1v-1zm-0.9 0v1h-0.9v-1zm0 1v0.9h-0.9v-0.9zm0 0.9v0.9h-0.9v-0.9zm0 0.9v0.9h-0.9v-0.9zm0 0.9v0.9h-0.9v-0.9zm0 0.9v0.9h-0.9v-0.9zm0 0.9v0.9h-0.9v-0.9zm0.9 0v0.9h-0.9v-0.9zm0-0.9v0.9h-0.9v-0.9zm0-0.9v0.9h-0.9v-0.9zm0-0.9v0.9h-0.9v-0.9zm0-0.9v0.9h-0.9v-0.9zm0-0.9v0.9h-1v-0.9zm1 0v0.9h-1v-0.9zm0 1.8v0.9h-0.9v-0.9zm0-3.7v0.9h-0.9v-0.9zm0-0.9v0.9h-0.9v-0.9zm-0.9 0v0.9h-0.9v-0.9zm0 0.9v0.9h-0.9v-0.9zm-1.8 0v0.9h-0.9v-0.9zm0-0.9v0.9h-0.9v-0.9zm0-0.9v0.9h-0.9v-0.9zm1.8 0v0.9h-0.9v-0.9zm-1.8-3.6v0.9h-1v-0.9zm0 0.9v0.9h-0.9v-0.9zm1 0v0.9h-1v-0.9zm0.9 0v0.9h-0.9v-0.9zm0 0.9v0.9h-0.9v-0.9zm0.9 0v0.9h-0.9v-0.9zm0 0.9v0.9h-0.9v-0.9zm-0.9 0v0.9h-0.9v-0.9zm-0.9 0v0.9h-0.9v-0.9zm0-0.9v0.9h-0.9v-0.9zm-0.9 0v0.9h-0.9v-0.9zm-0.9 0v0.9h-0.9v-0.9zm0 0.9v0.9h-0.9v-0.9zm0.9 0v0.9h-0.9v-0.9zm-1 0.9v0.9h-0.9v-0.9zm0-3.6v0.9h-0.9v-0.9zm0 0.9v0.9h-0.9v-0.9zm-0.9-0.9v0.9h-0.9v-0.9zm0 0.9v0.9h-0.9v-0.9zm0 0.9v0.9h-0.9v-0.9zm-0.9-0.9v0.9h-0.9v-0.9zm-0.9 0.9v0.9h-0.9v-0.9zm0 0.9v0.9h-0.9v-0.9zm0.9 0v0.9h-0.9v-0.9zm0-0.9v0.9h-1v-0.9zm-0.9 1.8v0.9h-0.9v-0.9zm11.8 12.7v0.9h-0.9v-0.9zm0.9 0v0.9h-0.9v-0.9zm0.9 0v0.9h-0.9v-0.9zm0.9 0v0.9h-0.9v-0.9zm0.9-0.9v0.9h-0.9v-0.9zm0-0.9v0.9h-0.9v-0.9zm0 1.8v0.9h-0.9v-0.9zm-0.9-0.9v0.9h-0.9v-0.9zm-0.9 0v0.9h-0.9v-0.9zm-0.9 0v0.9h-0.9v-0.9zm-0.9 0v0.9h-1v-0.9zm0-0.9v0.9h-0.9v-0.9zm0-0.9v0.9h-0.9v-0.9zm0.9 0v0.9h-0.9v-0.9zm0.9 0v0.9h-0.9v-0.9zm0.9 0v0.9h-0.9v-0.9zm0.9 0v0.9h-0.9v-0.9zm-0.9 0.9v0.9h-0.9v-0.9zm-0.9 0v0.9h-0.9v-0.9zm-0.9 0v0.9h-0.9v-0.9zm2.7-10.9v0.9h-0.9v-0.9zm-0.9 0v0.9h-0.9v-0.9zm-1.8 0v0.9h-0.9v-0.9zm0 0.9v0.9h-0.9v-0.9zm0 0.9v0.9h-1v-0.9zm-0.9 0.9v1h-0.9v-1zm0 1v0.9h-0.9v-0.9zm0 0.9v0.9h-0.9v-0.9zm0 0.9v0.9h-0.9v-0.9zm0 0.9v0.9h-0.9v-0.9zm0 0.9v0.9h-0.9v-0.9zm0 0.9v0.9h-0.9v-0.9zm0 0.9v0.9h-0.9v-0.9zm0.9 0v0.9h-0.9v-0.9zm0.9 0v0.9h-0.9v-0.9zm0.9 0v0.9h-0.9v-0.9zm0.9 0v0.9h-0.9v-0.9zm0-0.9v0.9h-0.9v-0.9zm0-1.8v0.9h-0.9v-0.9zm0-0.9v0.9h-0.9v-0.9zm0-0.9v0.9h-0.9v-0.9zm0-0.9v0.9h-0.9v-0.9zm0-1v1h-1v-1zm0-0.9v0.9h-0.9v-0.9zm0-0.9v0.9h-0.9v-0.9zm-0.9 3.7v0.9h-0.9v-0.9zm0 1.8v0.9h-0.9v-0.9zm0 0.9v0.9h-0.9v-0.9zm0 0.9v0.9h-0.9v-0.9zm0.9-0.9v0.9h-0.9v-0.9zm-0.9-4.6v1h-0.9v-1zm-0.9 0v1h-0.9v-1zm-0.9 0v1h-1v-1zm0 1v0.9h-0.9v-0.9zm0 0.9v0.9h-0.9v-0.9zm0 0.9v0.9h-0.9v-0.9zm0 0.9v0.9h-0.9v-0.9zm0 0.9v0.9h-0.9v-0.9zm0 0.9v0.9h-0.9v-0.9zm0.9 0v0.9h-0.9v-0.9zm0-0.9v0.9h-0.9v-0.9zm0-0.9v0.9h-0.9v-0.9zm0-0.9v0.9h-0.9v-0.9zm0-0.9v0.9h-0.9v-0.9zm0-0.9v0.9h-0.9v-0.9zm0.9 0v0.9h-0.9v-0.9zm0 1.8v0.9h-0.9v-0.9zm0-3.7v0.9h-1v-0.9zm0-0.9v0.9h-0.9v-0.9zm-0.9 0v0.9h-0.9v-0.9zm0 0.9v0.9h-0.9v-0.9zm-1.8 0v0.9h-0.9v-0.9zm0-0.9v0.9h-0.9v-0.9zm0-0.9v0.9h-0.9v-0.9zm1.8 0v0.9h-0.9v-0.9zm-1.8-3.6v0.9h-0.9v-0.9zm0 0.9v0.9h-0.9v-0.9zm0.9 0v0.9h-0.9v-0.9zm0.9 0v0.9h-0.9v-0.9zm0 0.9v0.9h-0.9v-0.9zm0.9 0v0.9h-0.9v-0.9zm0 0.9v0.9h-1v-0.9zm-0.9 0v0.9h-0.9v-0.9zm-0.9 0v0.9h-0.9v-0.9zm0-0.9v0.9h-0.9v-0.9zm-0.9 0v0.9h-0.9v-0.9zm-0.9 0v0.9h-0.9v-0.9zm0 0.9v0.9h-0.9v-0.9zm0.9 0v0.9h-0.9v-0.9zm-0.9 0.9v0.9h-0.9v-0.9zm-1-0.9v0.9h-0.9v-0.9zm0-0.9v0.9h-0.9v-0.9zm0-0.9v0.9h-0.9v-0.9zm0-0.9v0.9h-0.9v-0.9zm0.9 0v0.9h-0.9v-0.9zm0 0.9v0.9h-0.9v-0.9zm-1.8-0.9v0.9h-0.9v-0.9zm0 0.9v0.9h-0.9v-0.9zm-0.9 0v0.9h-0.9v-0.9zm0 0.9v0.9h-0.9v-0.9zm-1 0v0.9h-0.9v-0.9zm0 0.9v0.9h-0.9v-0.9zm0.9 0v0.9h-0.9v-0.9zm0.9 0v0.9h-0.9v-0.9zm0-0.9v0.9h-0.9v-0.9zm-1.8 1.8v0.9h-0.9v-0.9zm0.9 0v0.9h-0.9v-0.9zm-0.9 0.9v0.9h-0.9v-0.9zm-6.4-4.5v0.9h-0.9v-0.9zm-0.9 0.9v0.9h-0.9v-0.9zm8.2-0.9v0.9h-0.9v-0.9zm-0.9 0.9v0.9h-0.9v-0.9zm-5.5 1.8v0.9h-0.9v-0.9zm2.7-2.7v0.9h-0.9v-0.9z"/>
</svg>